        <svg style="margin-bottom:30px;" width="228" height="46" viewBox="0 0 228 46" fill="none" xmlns="http://www.w3.org/2000/svg">
        <g clip-path="url(#clip0_103_2)">
        <path d="M-1.06429e-05 28.5191V11.5029C-0.00442355 11.359 0.020878 11.2158 0.0742999 11.0819C0.127722 10.948 0.208156 10.8264 0.310684 10.7244C0.410898 10.6241 0.530649 10.5451 0.662667 10.4922C0.794684 10.4392 0.936203 10.4135 1.07858 10.4165H5.02946C5.17375 10.4122 5.31739 10.4374 5.45149 10.4903C5.58559 10.5433 5.70731 10.623 5.80909 10.7244C5.90868 10.8279 5.98642 10.9501 6.03775 11.0838C6.08909 11.2175 6.11296 11.3599 6.10802 11.5029V17.7656H13.834V11.5029C13.8291 11.3589 13.8541 11.2155 13.9074 11.0815C13.9608 10.9475 14.0413 10.8258 14.1441 10.7239C14.2469 10.622 14.3697 10.5422 14.5049 10.4893C14.6401 10.4364 14.7848 10.4116 14.9301 10.4165H18.8634C19.0069 10.4116 19.1498 10.4365 19.2831 10.4896C19.4163 10.5426 19.5369 10.6226 19.6372 10.7244C19.7375 10.8277 19.8162 10.9497 19.8685 11.0833C19.9208 11.217 19.9458 11.3596 19.942 11.5029V28.5191C19.9478 28.6607 19.9239 28.802 19.8716 28.934C19.8194 29.066 19.7401 29.1858 19.6387 29.2858C19.5372 29.3858 19.416 29.4638 19.2825 29.5148C19.149 29.5658 19.0063 29.5888 18.8634 29.5822H14.9301C14.7854 29.5873 14.6411 29.5632 14.506 29.5113C14.371 29.4593 14.248 29.3807 14.1446 29.2801C14.0434 29.1808 13.9637 29.0621 13.9103 28.9312C13.8569 28.8004 13.8309 28.6602 13.834 28.5191V21.9949H6.10802V28.5191C6.11292 28.6613 6.08785 28.8029 6.03435 28.935C5.98085 29.067 5.90013 29.1865 5.79736 29.2859C5.69577 29.3836 5.5755 29.4601 5.44362 29.511C5.31175 29.5618 5.17092 29.5861 5.02946 29.5822H1.07858C0.935169 29.5876 0.792128 29.5642 0.658123 29.5133C0.524118 29.4623 0.401924 29.385 0.298949 29.2859C0.199147 29.1849 0.121157 29.0649 0.0697561 28.933C0.0183553 28.8012 -0.00538268 28.6603 -1.06429e-05 28.5191V28.5191Z" fill="black"/>
        <path d="M28.0372 31.4006L30.3467 31.7027C32.0076 31.7027 33.1663 30.4962 33.8228 28.0833C31.9839 28.1415 30.1924 27.4991 28.8168 26.2882C27.4764 25.0914 26.3236 22.9612 25.3583 19.8977L22.7205 11.468C22.6835 11.3635 22.6656 11.2534 22.6677 11.1427C22.6904 10.9751 22.7688 10.8197 22.8905 10.7011C22.9725 10.6078 23.0746 10.5338 23.1892 10.4845C23.3038 10.4353 23.428 10.412 23.5529 10.4165H27.24C27.5952 10.4223 27.9388 10.5427 28.2189 10.7593C28.5039 10.9696 28.7101 11.268 28.8051 11.6074L31.1146 19.0204C31.4678 20.3752 32.0634 21.6562 32.8732 22.8024C33.122 23.1239 33.4412 23.385 33.8068 23.5662C34.1724 23.7474 34.5747 23.8438 34.9834 23.8482L38.5005 11.6074C38.5923 11.274 38.787 10.9775 39.0574 10.7593C39.3147 10.5386 39.6434 10.417 39.9836 10.4165H43.7059C43.8296 10.4069 43.9538 10.4279 44.0674 10.4775C44.181 10.5272 44.2803 10.6041 44.3565 10.7011C44.4763 10.8273 44.5523 10.9881 44.5734 11.1601C44.5756 11.2639 44.5638 11.3674 44.5382 11.468L39.9133 27.7986C39.0887 30.6918 38.0687 32.7561 36.8534 33.9916C36.2435 34.6051 35.5119 35.0865 34.7047 35.4055C33.8975 35.7245 33.0324 35.8741 32.1639 35.8449C30.8064 35.8781 29.4484 35.8081 28.1016 35.6358C27.5664 35.5955 27.0511 35.4173 26.6069 35.1187C26.5118 35.0263 26.4364 34.916 26.385 34.7943C26.3337 34.6725 26.3075 34.5419 26.3079 34.4099V32.487C26.303 32.344 26.3269 32.2015 26.3782 32.0679C26.4296 31.9342 26.5073 31.812 26.6069 31.7085C26.7085 31.6068 26.8301 31.5269 26.9643 31.4739C27.0984 31.4209 27.2422 31.396 27.3865 31.4006H28.0372Z" fill="black"/>
        <path d="M47.1116 34.4216V11.5029C47.1072 11.359 47.1325 11.2157 47.1859 11.0819C47.2393 10.948 47.3197 10.8264 47.4223 10.7244C47.5221 10.6236 47.6417 10.5442 47.7739 10.4912C47.906 10.4382 48.0477 10.4128 48.1902 10.4165H51.5959C51.7395 10.414 51.882 10.4406 52.0148 10.4946C52.1477 10.5486 52.268 10.629 52.3684 10.7307C52.4688 10.8324 52.5472 10.9533 52.5989 11.0861C52.6505 11.2189 52.6742 11.3607 52.6686 11.5029V12.0258C54.5563 10.7164 56.8129 10.0312 59.1167 10.0679C60.2684 10.0415 61.4126 10.2578 62.4737 10.7025C63.5347 11.1471 64.4884 11.8101 65.2716 12.6474C66.9207 14.367 67.7453 16.8264 67.7453 20.0255C67.7453 23.2246 66.8914 25.6762 65.1837 27.3804C63.4759 29.0806 61.1761 29.9327 58.2843 29.9366C56.5487 29.8928 54.8297 29.5912 53.1844 29.0419V34.4216C53.1896 34.565 53.1653 34.708 53.1129 34.8419C53.0605 34.9757 52.9811 35.0976 52.8797 35.2C52.7794 35.3003 52.6597 35.3793 52.5276 35.4323C52.3956 35.4852 52.2541 35.5109 52.1118 35.5079H48.1609C48.0184 35.5116 47.8767 35.4862 47.7446 35.4332C47.6124 35.3803 47.4928 35.3009 47.393 35.2C47.2957 35.0957 47.2206 34.9729 47.1723 34.8392C47.124 34.7054 47.1033 34.5634 47.1116 34.4216V34.4216ZM53.202 25.0043C54.4369 25.4301 55.729 25.671 57.0357 25.7189C58.6496 25.7189 59.7927 25.2638 60.4649 24.3536C61.137 23.4434 61.4751 21.993 61.479 20.0023C61.479 18.0096 61.1624 16.5572 60.5176 15.6567C60.1937 15.2071 59.7593 14.8468 59.2557 14.6099C58.7521 14.373 58.1958 14.2674 57.6395 14.3031C56.3674 14.3031 54.8844 14.826 53.202 15.8775V25.0043Z" fill="black"/>
        <path d="M111.428 28.5191V11.5029C111.422 11.3594 111.447 11.2164 111.499 11.0826C111.552 10.9487 111.631 10.8269 111.732 10.7244C111.833 10.6241 111.952 10.5451 112.084 10.4922C112.216 10.4392 112.358 10.4135 112.5 10.4165H116.187C116.333 10.4116 116.478 10.4364 116.613 10.4893C116.748 10.5422 116.871 10.622 116.974 10.7239C117.076 10.8258 117.157 10.9475 117.21 11.0815C117.264 11.2155 117.289 11.3589 117.284 11.5029V22.9942L123.491 11.6772C123.694 11.3054 123.994 10.9944 124.359 10.7767C124.694 10.5532 125.086 10.4283 125.49 10.4165H130.426C130.571 10.4116 130.716 10.4364 130.851 10.4893C130.986 10.5422 131.109 10.622 131.212 10.7239C131.315 10.8258 131.395 10.9475 131.449 11.0815C131.502 11.2155 131.527 11.3589 131.522 11.5029V28.5191C131.527 28.6613 131.502 28.8029 131.448 28.935C131.395 29.067 131.314 29.1865 131.211 29.2859C131.107 29.3852 130.984 29.4626 130.849 29.5135C130.714 29.5644 130.57 29.5878 130.426 29.5822H126.739C126.596 29.5878 126.453 29.5639 126.32 29.5119C126.187 29.4598 126.066 29.3809 125.965 29.2801C125.867 29.1794 125.789 29.0602 125.738 28.9295C125.687 28.7988 125.662 28.6593 125.666 28.5191V17.0452L119.441 28.3274C119.232 28.6878 118.936 28.9912 118.579 29.2104C118.246 29.4404 117.853 29.5696 117.448 29.5822H112.489C112.346 29.5888 112.204 29.5659 112.07 29.5148C111.937 29.4637 111.816 29.3856 111.715 29.2856C111.614 29.1855 111.536 29.0656 111.484 28.9336C111.432 28.8016 111.409 28.6605 111.416 28.5191H111.428Z" fill="black"/>
        <path d="M135.854 28.5191V11.5029C135.85 11.359 135.875 11.2158 135.928 11.0819C135.982 10.948 136.062 10.8264 136.165 10.7244C136.265 10.6242 136.385 10.5451 136.517 10.4922C136.649 10.4392 136.79 10.4135 136.933 10.4165H140.883C141.028 10.4112 141.172 10.4358 141.306 10.4888C141.44 10.5419 141.562 10.6221 141.663 10.7244C141.763 10.828 141.84 10.9501 141.892 11.0838C141.943 11.2175 141.967 11.3599 141.962 11.5029V17.7656H149.688V11.5029C149.683 11.3589 149.708 11.2155 149.761 11.0815C149.815 10.9475 149.895 10.8258 149.998 10.7239C150.101 10.622 150.224 10.5422 150.359 10.4893C150.494 10.4364 150.639 10.4117 150.784 10.4165H154.717C154.862 10.4122 155.005 10.4374 155.139 10.4903C155.274 10.5433 155.395 10.623 155.497 10.7244C155.597 10.828 155.674 10.9501 155.726 11.0838C155.777 11.2175 155.801 11.3599 155.796 11.5029V28.5191C155.801 28.6603 155.778 28.8012 155.726 28.933C155.675 29.0649 155.597 29.1849 155.497 29.2859C155.394 29.3844 155.271 29.4615 155.137 29.5123C155.004 29.5632 154.861 29.587 154.717 29.5822H150.784C150.639 29.5873 150.495 29.5632 150.36 29.5113C150.225 29.4593 150.102 29.3807 149.999 29.2801C149.897 29.1808 149.818 29.0621 149.764 28.9313C149.711 28.8004 149.685 28.6602 149.688 28.5191V21.9949H141.95V28.5191C141.955 28.6613 141.93 28.8029 141.877 28.935C141.823 29.067 141.742 29.1865 141.64 29.2859C141.538 29.3841 141.418 29.461 141.286 29.5119C141.154 29.5628 141.013 29.5867 140.872 29.5822H136.921C136.778 29.5875 136.636 29.564 136.503 29.5131C136.37 29.4621 136.249 29.3848 136.147 29.2859C136.048 29.1851 135.97 29.0649 135.92 28.9329C135.869 28.8009 135.847 28.66 135.854 28.5191V28.5191Z" fill="black"/>
        <path d="M161.365 28.3274C160.614 27.8312 160.004 27.1524 159.594 26.356C159.183 25.5596 158.986 24.6722 159.02 23.7785C158.983 22.8893 159.18 22.0059 159.591 21.2146C160.002 20.4234 160.613 19.7514 161.365 19.2645C163.168 18.1524 165.269 17.6057 167.391 17.6959H173.253C173.253 16.3287 172.963 15.3779 172.385 14.8434C171.799 14.3089 170.802 14.0359 169.36 14.0359C167.918 14.0359 166.91 14.3903 166.324 15.099C166.074 15.4278 165.751 15.6945 165.38 15.878C165.009 16.0615 164.599 16.1568 164.184 16.1564H161.552C161.407 16.1607 161.263 16.1357 161.128 16.0827C160.992 16.0298 160.87 15.9501 160.767 15.8485C160.666 15.7492 160.586 15.6304 160.532 15.4996C160.479 15.3688 160.453 15.2285 160.456 15.0874C160.456 11.7411 163.663 10.068 170.075 10.068C172.877 10.068 175.124 10.6896 176.817 11.9328C178.509 13.176 179.355 15.0971 179.355 17.6959V28.5191C179.361 28.6605 179.338 28.8017 179.287 28.9336C179.235 29.0656 179.156 29.1855 179.055 29.2856C178.954 29.3856 178.833 29.4637 178.7 29.5148C178.567 29.5659 178.425 29.5888 178.282 29.5822H174.876C174.732 29.5887 174.588 29.5651 174.454 29.5131C174.32 29.461 174.198 29.3817 174.097 29.2801C173.998 29.1795 173.921 29.0602 173.87 28.9295C173.818 28.7988 173.794 28.6593 173.798 28.5191V27.973C171.918 29.3001 169.657 29.9908 167.35 29.9424C165.235 30.0234 163.146 29.4597 161.365 28.3274V28.3274ZM165.867 22.2564C165.639 22.4462 165.455 22.6831 165.329 22.9506C165.204 23.218 165.139 23.5095 165.139 23.8046C165.139 24.0997 165.204 24.3912 165.329 24.6587C165.455 24.9262 165.639 25.1631 165.867 25.3529C166.472 25.795 167.215 26.0111 167.965 25.9629C169.828 25.9487 171.648 25.402 173.206 24.3885V21.6406H167.789C167.095 21.6135 166.414 21.8317 165.867 22.2564V22.2564Z" fill="black"/>
        <path d="M183.681 28.5191V11.5029C183.676 11.3594 183.7 11.2164 183.752 11.0826C183.805 10.9487 183.884 10.8269 183.986 10.7244C184.086 10.6242 184.205 10.5451 184.338 10.4922C184.47 10.4392 184.611 10.4135 184.753 10.4165H188.71C188.854 10.4116 188.997 10.4365 189.13 10.4896C189.263 10.5426 189.384 10.6226 189.484 10.7244C189.584 10.828 189.661 10.9501 189.713 11.0838C189.764 11.2175 189.788 11.3599 189.783 11.5029V17.7656H197.515V11.5029C197.509 11.3592 197.533 11.2159 197.586 11.0819C197.639 10.9479 197.719 10.8261 197.821 10.7242C197.923 10.6222 198.046 10.5423 198.181 10.4893C198.316 10.4364 198.46 10.4116 198.605 10.4165H202.538C202.683 10.4112 202.827 10.4358 202.961 10.4888C203.095 10.5419 203.217 10.6221 203.318 10.7244C203.418 10.828 203.495 10.9501 203.547 11.0838C203.598 11.2175 203.622 11.3599 203.617 11.5029V28.5191C203.624 28.661 203.6 28.8027 203.548 28.9351C203.496 29.0675 203.417 29.1876 203.316 29.2878C203.214 29.388 203.092 29.4659 202.958 29.5166C202.825 29.5673 202.681 29.5897 202.538 29.5822H198.605C198.46 29.5873 198.316 29.5632 198.181 29.5113C198.046 29.4593 197.923 29.3807 197.819 29.2801C197.719 29.1805 197.64 29.0616 197.588 28.9308C197.535 28.7999 197.511 28.6598 197.515 28.5191V21.9949H189.783V28.5191C189.789 28.6614 189.764 28.8034 189.711 28.9356C189.657 29.0678 189.576 29.1872 189.472 29.2859C189.372 29.3834 189.253 29.4599 189.122 29.5108C188.991 29.5617 188.851 29.5859 188.71 29.5822H184.753C184.611 29.5888 184.468 29.5659 184.335 29.5148C184.202 29.4637 184.081 29.3856 183.98 29.2856C183.879 29.1855 183.8 29.0656 183.749 28.9336C183.697 28.8016 183.674 28.6605 183.681 28.5191V28.5191Z" fill="black"/>
        <path d="M217.334 29.9366C214.031 29.9366 211.464 29.0962 209.631 27.4153C207.798 25.7344 206.882 23.2653 206.882 20.0081C206.882 16.7509 207.792 14.2799 209.614 12.5951C211.435 10.9103 213.975 10.068 217.234 10.068C220.485 10.068 222.986 10.5811 224.737 11.6075C225.556 12.0503 226.234 12.7104 226.696 13.5139C227.158 14.3173 227.385 15.2323 227.351 16.1564C227.357 16.2981 227.333 16.4396 227.28 16.5716C227.228 16.7036 227.148 16.8234 227.047 16.9232C226.942 17.0219 226.819 17.099 226.684 17.1498C226.549 17.2007 226.405 17.2244 226.261 17.2195H223.629C223.208 17.2022 222.799 17.0756 222.443 16.8523C222.087 16.629 221.797 16.3169 221.601 15.9472C220.909 14.8473 219.684 14.2992 217.926 14.3031C216.167 14.3031 214.936 14.7446 214.239 15.6393C213.541 16.534 213.183 17.9631 213.183 20.0023C213.183 22.0414 213.547 23.488 214.274 24.3711C215.001 25.2541 216.255 25.7189 218.049 25.7189C219.842 25.7189 221.085 25.1728 221.777 24.0748C221.971 23.7084 222.258 23.3985 222.609 23.1754C222.961 22.9523 223.365 22.8238 223.782 22.8025H226.414C226.559 22.7981 226.703 22.8231 226.838 22.8761C226.973 22.929 227.096 23.0088 227.199 23.1104C227.3 23.2097 227.38 23.3284 227.433 23.4592C227.487 23.5901 227.513 23.7303 227.51 23.8715C227.543 24.7962 227.316 25.7119 226.853 26.5155C226.39 27.3191 225.71 27.9788 224.89 28.4203C223.143 29.4273 220.624 29.9328 217.334 29.9366Z" fill="black"/>
        <path d="M82.3647 23.7146V6.02451C82.3647 6.02451 76.8839 7.86035 76.5498 8.00559C75.2937 8.54939 74.2237 9.44249 73.4694 10.5767C72.7151 11.711 72.3089 13.0377 72.2999 14.3961V28.6992C72.3106 30.0565 72.7168 31.3817 73.4698 32.5155C74.2227 33.6493 75.2903 34.5432 76.5439 35.0897C76.878 35.2349 82.3647 37.0707 82.3647 37.0707V30.1574H79.7034L82.3647 23.7146Z" fill="#60AAFB"/>
        <path d="M94.5632 12.0839V0C94.5632 0 89.0765 1.84161 88.7483 1.98104C87.4931 2.52604 86.4239 3.41949 85.6698 4.55346C84.9157 5.68743 84.5089 7.01346 84.4984 8.37154V23.7959L87.1187 30.1864H84.4984C84.4984 38.4999 84.4984 46.0232 84.4984 46.0232C84.4984 46.0232 89.9851 44.1816 90.3192 44.0364C91.5739 43.4908 92.6427 42.5972 93.3967 41.4634C94.1508 40.3295 94.5579 39.0038 94.569 37.6459V18.6196H91.8902L94.5632 12.0839Z" fill="#355DFB"/>
        <path d="M106.674 14.4019C106.665 13.0434 106.259 11.7168 105.504 10.5825C104.75 9.44828 103.68 8.55514 102.424 8.01135C102.09 7.86611 96.609 6.0303 96.609 6.0303V12.1361L99.282 18.6254H96.609V37.0882C96.609 37.0882 102.096 35.2523 102.43 35.1071C103.683 34.5606 104.751 33.6667 105.504 32.5329C106.257 31.3992 106.663 30.0739 106.674 28.7166V14.4019Z" fill="#0000DE"/>
        </g>
        <defs>
        <clipPath id="clip0_103_2">
        <rect width="227.504" height="46" fill="white"/>
        </clipPath>
        </defs>
        </svg>